name analog
datacolumns 19
datarows 64
range 0.47650000000000003 0.508
endheader
time	ground_force_vx	ground_force_vy	ground_force_vz	ground_force_px	ground_force_py	ground_force_pz	l_ground_force_vx	l_ground_force_vy	l_ground_force_vz	l_ground_force_px	l_ground_force_py	l_ground_force_pz	ground_torque_x	ground_torque_y	ground_torque_z	l_ground_torque_x	l_ground_torque_y	l_ground_torque_z
0.47650000000000003	-0.0	-0.0	-0.0	-0.0	-0.0	-0.0	-13.281805992126465	-4.504405975341797	-697.8564453125	-0.0	-0.0	-0.0	-0.0	-0.0	-0.0	182042.59375	37055.44140625	-4788.47021484375
0.47700000000000004	-0.0	-0.0	-0.0	-0.0	-0.0	-0.0	-12.777714729309082	-4.408628463745117	-691.6060791015625	-0.0	-0.0	-0.0	-0.0	-0.0	-0.0	180852.90625	37100.34765625	-4813.556640625
0.47750000000000004	-0.0	-0.0	-0.0	-0.0	-0.0	-0.0	-12.29985237121582	-3.732363224029541	-686.80810546875	-0.0	-0.0	-0.0	-0.0	-0.0	-0.0	179462.296875	36790.63671875	-4803.59765625
0.47800000000000004	-0.0	-0.0	-0.0	-0.0	-0.0	-0.0	-11.777576446533203	-3.1606433391571045	-680.8416137695312	-0.0	-0.0	-0.0	-0.0	-0.0	-0.0	178657.546875	36443.44921875	-4798.3525390625
0.47850000000000004	-0.0	-0.0	-0.0	-0.0	-0.0	-0.0	-11.462353706359863	-2.5799098014831543	-676.1044311523438	-0.0	-0.0	-0.0	-0.0	-0.0	-0.0	177386.25	36210.890625	-4753.5146484375
0.47900000000000004	-0.0	-0.0	-0.0	-0.0	-0.0	-0.0	-10.309122085571287	-2.0918359756469727	-670.471435546875	-0.0	-0.0	-0.0	-0.0	-0.0	-0.0	176101.75	36127.03125	-4584.82470703125
0.47950000000000004	-0.0	-0.0	-0.0	-0.0	-0.0	-0.0	-8.967016220092773	-1.599059820175171	-665.0689086914062	-0.0	-0.0	-0.0	-0.0	-0.0	-0.0	175392.53125	36070.65234375	-4306.6826171875
0.48	-0.0	-0.0	-0.0	-0.0	-0.0	-0.0	-7.880426406860352	-0.4516620337963104	-661.3477172851562	-0.0	-0.0	-0.0	-0.0	-0.0	-0.0	174817.640625	35915.32421875	-4077.706298828125
0.4805	-0.0	-0.0	-0.0	-0.0	-0.0	-0.0	-6.756948471069336	0.2466004490852356	-657.8742065429688	-0.0	-0.0	-0.0	-0.0	-0.0	-0.0	174024.453125	35743.90625	-3854.900146484375
0.481	-0.0	-0.0	-0.0	-0.0	-0.0	-0.0	-5.784539699554443	0.8961681127548218	-652.6782836914062	-0.0	-0.0	-0.0	-0.0	-0.0	-0.0	173165.03125	35589.765625	-3702.400390625
0.4815	-0.0	-0.0	-0.0	-0.0	-0.0	-0.0	-4.560927391052246	0.9623775482177734	-648.3028564453125	-0.0	-0.0	-0.0	-0.0	-0.0	-0.0	172586.3125	35559.9765625	-3468.037109375
0.482	-0.0	-0.0	-0.0	-0.0	-0.0	-0.0	-3.4800615310668945	1.161197066307068	-643.8640747070312	-0.0	-0.0	-0.0	-0.0	-0.0	-0.0	172090.734375	35401.80078125	-3263.70751953125
0.4825	-0.0	-0.0	-0.0	-0.0	-0.0	-0.0	-1.9676754474639893	1.7121683359146118	-640.8362426757812	-0.0	-0.0	-0.0	-0.0	-0.0	-0.0	172124.203125	35492.765625	-3162.154052734375
0.483	-0.0	-0.0	-0.0	-0.0	-0.0	-0.0	-1.0447241067886353	3.1344189643859863	-640.5084228515625	-0.0	-0.0	-0.0	-0.0	-0.0	-0.0	172405.390625	35266.375	-2908.888671875
0.4835	-0.0	-0.0	-0.0	-0.0	-0.0	-0.0	-0.0090642422437667	3.690612316131592	-641.4269409179688	-0.0	-0.0	-0.0	-0.0	-0.0	-0.0	173237.890625	35158.9296875	-2814.13671875
0.484	-0.0	-0.0	-0.0	-0.0	-0.0	-0.0	0.8559362888336182	4.313223361968994	-643.75	-0.0	-0.0	-0.0	-0.0	-0.0	-0.0	174333.4375	34980.14453125	-2599.6767578125
0.4845	-0.0	-0.0	-0.0	-0.0	-0.0	-0.0	2.094277620315552	5.176350593566895	-644.9537963867188	-0.0	-0.0	-0.0	-0.0	-0.0	-0.0	175435.515625	34647.62109375	-2299.3603515625
0.485	-0.0	-0.0	-0.0	-0.0	-0.0	-0.0	3.082923650741577	6.257654666900635	-649.2301025390625	-0.0	-0.0	-0.0	-0.0	-0.0	-0.0	177514.078125	34654.50390625	-2265.656005859375
0.4855	-0.0	-0.0	-0.0	-0.0	-0.0	-0.0	3.0957839488983154	7.993176460266113	-656.3684692382812	-0.0	-0.0	-0.0	-0.0	-0.0	-0.0	180014.296875	34676.73828125	-2371.87890625
0.486	-0.0	-0.0	-0.0	-0.0	-0.0	-0.0	3.0691232681274414	10.523497581481934	-664.5580444335938	-0.0	-0.0	-0.0	-0.0	-0.0	-0.0	183273.28125	34558.30859375	-2531.419677734375
0.4865	-0.0	-0.0	-0.0	-0.0	-0.0	-0.0	2.235490322113037	12.453250885009766	-675.8877563476562	-0.0	-0.0	-0.0	-0.0	-0.0	-0.0	187346.71875	34430.69921875	-2777.740966796875
0.487	-0.0	-0.0	-0.0	-0.0	-0.0	-0.0	1.982601761817932	14.811448097229004	-687.0235595703125	-0.0	-0.0	-0.0	-0.0	-0.0	-0.0	191251.328125	34381.87890625	-2833.698486328125
0.4875	-0.0	-0.0	-0.0	-0.0	-0.0	-0.0	1.7389686107635498	16.719444274902344	-700.1506958007812	-0.0	-0.0	-0.0	-0.0	-0.0	-0.0	195366.640625	34345.5625	-2949.029541015625
0.488	-0.0	-0.0	-0.0	-0.0	-0.0	-0.0	1.415779948234558	17.67276382446289	-712.44091796875	-0.0	-0.0	-0.0	-0.0	-0.0	-0.0	199325.625	34059.6640625	-2940.130615234375
0.4885	-0.0	-0.0	-0.0	-0.0	-0.0	-0.0	1.3319507837295532	18.494047164916992	-726.9285888671875	-0.0	-0.0	-0.0	-0.0	-0.0	-0.0	203499.390625	34114.53125	-3174.25390625
0.489	-0.0	-0.0	-0.0	-0.0	-0.0	-0.0	0.2039550691843032	19.170543670654297	-739.342529296875	-0.0	-0.0	-0.0	-0.0	-0.0	-0.0	207534.71875	34060.75390625	-3333.780517578125
0.4895	-0.0	-0.0	-0.0	-0.0	-0.0	-0.0	-0.9219797849655152	18.980491638183597	-750.4598999023438	-0.0	-0.0	-0.0	-0.0	-0.0	-0.0	211134.40625	34281.6328125	-3558.15185546875
0.49	-0.0	-0.0	-0.0	-0.0	-0.0	-0.0	-2.0230393409729004	17.96971893310547	-761.1036376953125	-0.0	-0.0	-0.0	-0.0	-0.0	-0.0	214442.375	34390.32421875	-3757.548095703125
0.4905	-0.0	-0.0	-0.0	-0.0	-0.0	-0.0	-2.713010549545288	16.57016944885254	-772.458984375	-0.0	-0.0	-0.0	-0.0	-0.0	-0.0	216921.203125	34170.68359375	-3776.575927734375
0.491	-0.0	-0.0	-0.0	-0.0	-0.0	-0.0	-3.2829301357269287	14.10585117340088	-777.3409423828125	-0.0	-0.0	-0.0	-0.0	-0.0	-0.0	219033.953125	34161.64453125	-3789.537353515625
0.4915	-0.0	-0.0	-0.0	-0.0	-0.0	-0.0	-3.9305036067962646	11.950542449951172	-783.8392333984375	-0.0	-0.0	-0.0	-0.0	-0.0	-0.0	220941.1875	34156.921875	-3796.239990234375
0.492	-0.0	-0.0	-0.0	-0.0	-0.0	-0.0	-4.815876483917236	9.99140739440918	-788.86767578125	-0.0	-0.0	-0.0	-0.0	-0.0	-0.0	222391.15625	34565.0625	-4011.83447265625
0.4925	-0.0	-0.0	-0.0	-0.0	-0.0	-0.0	-6.724982261657715	8.849130630493164	-793.7696533203125	-0.0	-0.0	-0.0	-0.0	-0.0	-0.0	223583.9375	35084.43359375	-4368.845703125
0.493	-0.0	-0.0	-0.0	-0.0	-0.0	-0.0	-7.872492790222168	7.699945449829102	-796.5277099609375	-0.0	-0.0	-0.0	-0.0	-0.0	-0.0	224639.796875	35170.37890625	-4671.47216796875
0.4935	-0.0	-0.0	-0.0	-0.0	-0.0	-0.0	-8.617717742919922	6.535709381103516	-798.3863525390625	-0.0	-0.0	-0.0	-0.0	-0.0	-0.0	225081.21875	35456.40625	-4753.53857421875
0.494	-0.0	-0.0	-0.0	-0.0	-0.0	-0.0	-9.528061866760254	5.529640197753906	-800.443359375	-0.0	-0.0	-0.0	-0.0	-0.0	-0.0	225544.75	35444.828125	-4799.591796875
0.4945	-0.0	-0.0	-0.0	-0.0	-0.0	-0.0	-10.14659023284912	4.912600517272949	-799.1890869140625	-0.0	-0.0	-0.0	-0.0	-0.0	-0.0	225777.421875	35886.37890625	-4708.11279296875
0.495	-0.0	-0.0	-0.0	-0.0	-0.0	-0.0	-11.02817153930664	4.087841033935547	-799.840576171875	-0.0	-0.0	-0.0	-0.0	-0.0	-0.0	225313.65625	35829.3828125	-4822.599609375
0.4955	-0.0	-0.0	-0.0	-0.0	-0.0	-0.0	-11.931600570678713	3.7894906997680655	-796.6112060546875	-0.0	-0.0	-0.0	-0.0	-0.0	-0.0	224770.0	36085.70703125	-4973.4619140625
0.496	-0.0	-0.0	-0.0	-0.0	-0.0	-0.0	-12.498469352722168	3.7937402725219727	-793.823486328125	-0.0	-0.0	-0.0	-0.0	-0.0	-0.0	224163.40625	36167.140625	-5022.62060546875
0.4965	-0.0	-0.0	-0.0	-0.0	-0.0	-0.0	-13.007431983947754	3.8757503032684326	-791.0474853515625	-0.0	-0.0	-0.0	-0.0	-0.0	-0.0	223486.25	36104.51171875	-5023.521484375
0.497	-0.0	-0.0	-0.0	-0.0	-0.0	-0.0	-12.964813232421877	3.82808780670166	-788.7946166992188	-0.0	-0.0	-0.0	-0.0	-0.0	-0.0	222904.703125	36575.76171875	-4909.158203125
0.4975	-0.0	-0.0	-0.0	-0.0	-0.0	-0.0	-12.491830825805664	3.874629497528076	-785.9268798828125	-0.0	-0.0	-0.0	-0.0	-0.0	-0.0	221933.8125	36566.81640625	-4747.52978515625
0.498	-0.0	-0.0	-0.0	-0.0	-0.0	-0.0	-12.272464752197266	3.577712059020996	-784.311279296875	-0.0	-0.0	-0.0	-0.0	-0.0	-0.0	221329.28125	36489.05859375	-4594.4501953125
0.4985	-0.0	-0.0	-0.0	-0.0	-0.0	-0.0	-12.169697761535645	3.4841225147247314	-779.9404907226562	-0.0	-0.0	-0.0	-0.0	-0.0	-0.0	220517.109375	36363.55859375	-4379.29833984375
0.499	-0.0	-0.0	-0.0	-0.0	-0.0	-0.0	-11.228193283081056	3.2534279823303223	-776.1321411132812	-0.0	-0.0	-0.0	-0.0	-0.0	-0.0	218961.03125	36416.17578125	-4252.9169921875
0.4995	-0.0	-0.0	-0.0	-0.0	-0.0	-0.0	-11.298736572265623	2.9027676582336426	-771.22705078125	-0.0	-0.0	-0.0	-0.0	-0.0	-0.0	217863.0	36153.640625	-4150.837890625
0.5	-0.0	-0.0	-0.0	-0.0	-0.0	-0.0	-10.975916862487791	2.972834825515747	-765.752685546875	-0.0	-0.0	-0.0	-0.0	-0.0	-0.0	216301.203125	35856.67578125	-4056.224609375
0.5005000000000001	-0.0	-0.0	-0.0	-0.0	-0.0	-0.0	-10.516180992126465	2.609425544738769	-760.3255004882812	-0.0	-0.0	-0.0	-0.0	-0.0	-0.0	214808.171875	35583.1796875	-3919.82568359375
0.501	-0.0	-0.0	-0.0	-0.0	-0.0	-0.0	-10.19371509552002	2.442936897277832	-755.780517578125	-0.0	-0.0	-0.0	-0.0	-0.0	-0.0	213331.8125	35578.56640625	-3817.044189453125
0.5015000000000001	-0.0	-0.0	-0.0	-0.0	-0.0	-0.0	-9.447731018066406	2.155972003936768	-750.058349609375	-0.0	-0.0	-0.0	-0.0	-0.0	-0.0	211741.0	34970.515625	-3756.277587890625
0.502	-0.0	-0.0	-0.0	-0.0	-0.0	-0.0	-9.0888671875	1.9045331478118896	-745.8370361328125	-0.0	-0.0	-0.0	-0.0	-0.0	-0.0	210356.296875	34976.953125	-3537.508056640625
0.5025000000000001	-0.0	-0.0	-0.0	-0.0	-0.0	-0.0	-8.45921516418457	2.2963638305664062	-741.2238159179688	-0.0	-0.0	-0.0	-0.0	-0.0	-0.0	209405.765625	34538.67578125	-3338.402587890625
0.503	-0.0	-0.0	-0.0	-0.0	-0.0	-0.0	-8.635924339294434	2.1859140396118164	-738.7496337890625	-0.0	-0.0	-0.0	-0.0	-0.0	-0.0	208134.078125	34574.04296875	-3301.468505859375
0.5035000000000001	-0.0	-0.0	-0.0	-0.0	-0.0	-0.0	-8.983331680297852	1.9302332401275637	-734.1732177734375	-0.0	-0.0	-0.0	-0.0	-0.0	-0.0	207464.4375	34534.84765625	-3382.322021484375
0.504	-0.0	-0.0	-0.0	-0.0	-0.0	-0.0	-9.07199478149414	2.091138362884521	-732.50439453125	-0.0	-0.0	-0.0	-0.0	-0.0	-0.0	206998.234375	34423.5234375	-3383.25390625
0.5045000000000001	-0.0	-0.0	-0.0	-0.0	-0.0	-0.0	-9.919976234436035	2.7640419006347656	-732.8077392578125	-0.0	-0.0	-0.0	-0.0	-0.0	-0.0	206668.15625	34475.84765625	-3539.90234375
0.505	-0.0	-0.0	-0.0	-0.0	-0.0	-0.0	-9.85351276397705	2.7534661293029785	-732.7726440429688	-0.0	-0.0	-0.0	-0.0	-0.0	-0.0	206910.515625	34426.48046875	-3611.2685546875
0.5055000000000001	-0.0	-0.0	-0.0	-0.0	-0.0	-0.0	-9.862346649169922	2.730297327041626	-732.61181640625	-0.0	-0.0	-0.0	-0.0	-0.0	-0.0	207304.890625	34340.44921875	-3495.1640625
0.506	-0.0	-0.0	-0.0	-0.0	-0.0	-0.0	-9.40533447265625	2.594856977462769	-734.22412109375	-0.0	-0.0	-0.0	-0.0	-0.0	-0.0	207567.0625	34170.75390625	-3359.37158203125
0.5065000000000001	-0.0	-0.0	-0.0	-0.0	-0.0	-0.0	-8.901826858520508	1.9548639059066768	-734.5079345703125	-0.0	-0.0	-0.0	-0.0	-0.0	-0.0	207478.390625	33649.0625	-3179.886474609375
0.507	-0.0	-0.0	-0.0	-0.0	-0.0	-0.0	-8.482606887817383	1.6933602094650269	-734.3198852539062	-0.0	-0.0	-0.0	-0.0	-0.0	-0.0	207698.59375	33623.2890625	-3170.39892578125
0.5075000000000001	-0.0	-0.0	-0.0	-0.0	-0.0	-0.0	-8.005424499511719	1.5821919441223145	-733.3328857421875	-0.0	-0.0	-0.0	-0.0	-0.0	-0.0	207668.640625	33099.41796875	-2976.80078125
0.508	-0.0	-0.0	-0.0	-0.0	-0.0	-0.0	-7.42952823638916	1.6717569828033447	-733.4378662109375	-0.0	-0.0	-0.0	-0.0	-0.0	-0.0	207931.046875	32704.6640625	-2859.814208984375
